<svg version="1.1" id="Layer_1" xmlns="http://www.w3.org/2000/svg" xmlns:xlink="http://www.w3.org/1999/xlink" x="0px" y="0px"
	 width="100%" viewBox="0 0 200 200" enable-background="new 0 0 200 200" xml:space="preserve">
<path fill="#556EE5" opacity="1.000000" stroke="none" 
	d="
M134.000000,201.000000 
	C89.333336,201.000000 45.166672,201.000000 1.000006,201.000000 
	C1.000004,134.333344 1.000004,67.666679 1.000002,1.000015 
	C67.666656,1.000010 134.333313,1.000010 200.999969,1.000005 
	C200.999985,67.666649 200.999985,134.333298 201.000000,200.999969 
	C178.833328,201.000000 156.666672,201.000000 134.000000,201.000000 
M150.473434,159.131989 
	C150.630478,159.070663 150.787521,159.009354 151.464264,159.022308 
	C151.638992,159.012497 151.813705,159.002701 152.402313,158.278030 
	C152.605560,156.641769 152.985031,155.005600 152.986053,153.369217 
	C153.006851,120.252556 152.984238,87.135864 152.396011,53.515129 
	C143.092575,53.226089 133.789597,52.916908 124.484413,52.704758 
	C123.995331,52.693607 123.487465,53.505878 122.588150,54.586288 
	C122.712463,57.387913 122.836784,60.189541 122.538612,63.169125 
	C122.658707,63.794888 122.778801,64.420654 122.904205,65.977829 
	C122.948151,77.705864 122.992096,89.433899 122.586060,101.630768 
	C120.010635,100.042641 117.435211,98.454514 114.782173,96.895676 
	C114.782173,96.895676 114.509880,96.857758 114.261864,96.936432 
	C114.261864,96.936432 114.028114,96.822136 113.676353,96.524300 
	C113.435501,96.331139 113.179985,96.159866 112.976875,96.009720 
	C112.976875,96.009720 112.968353,96.076263 112.802696,95.364326 
	C111.412498,91.447151 108.034843,92.107697 104.598152,91.325432 
	C102.908951,90.885406 101.231277,90.127747 99.528343,90.065895 
	C94.739693,89.891953 89.940636,90.007500 85.145683,90.003326 
	C77.267723,89.996475 77.273148,89.994560 77.177696,82.320457 
	C77.175240,82.123558 76.719551,81.932304 76.507370,81.763916 
	C75.007904,83.520645 73.522789,85.260559 72.017639,86.063225 
	C72.013962,83.916122 72.059067,81.767639 71.997963,79.622169 
	C71.763832,71.401749 71.495598,63.182308 70.949844,54.474918 
	C70.642563,54.256420 70.335274,54.037922 69.289078,53.447948 
	C60.536785,53.641682 51.784492,53.835415 42.604679,54.732445 
	C42.416706,55.699280 42.071278,56.664928 42.063984,57.633125 
	C41.914249,77.507927 41.792103,97.382988 41.741016,117.258202 
	C41.739590,117.813759 42.580441,118.371468 43.478275,118.985710 
	C43.478275,118.985710 43.930637,119.016273 44.655373,119.432533 
	C46.961315,119.620346 49.266907,119.966316 51.573257,119.971504 
	C74.710129,120.023567 97.847130,120.019653 121.402931,120.371597 
	C121.881042,120.611595 122.359161,120.851601 122.857384,122.017159 
	C122.871590,133.009476 122.885796,144.001801 122.611435,155.457550 
	C122.704285,156.302658 122.797142,157.147781 122.999893,158.097244 
	C122.999893,158.097244 123.128471,158.177460 123.369286,158.782623 
	C125.230896,158.937714 127.092506,159.092789 129.890610,159.217102 
	C134.559998,159.244965 139.229385,159.272842 144.165909,159.516495 
	C144.475342,159.443558 144.784775,159.370605 145.134491,159.109314 
	C145.134491,159.109314 145.002075,158.969467 145.662598,159.139053 
	C146.109604,159.080505 146.556595,159.021957 147.446457,159.171112 
	C147.446457,159.171112 147.915588,159.309586 148.285965,159.598297 
	C148.855606,159.496002 149.425262,159.393707 150.473434,159.131989 
z"/>
<path fill="#FEFFFE" opacity="1.000000" stroke="none" 
	d="
M147.915588,159.309586 
	C147.915588,159.309586 147.446457,159.171112 147.138962,158.852432 
	C146.221664,158.678986 145.611862,158.824219 145.002075,158.969452 
	C145.002075,158.969467 145.134491,159.109314 144.815338,159.137909 
	C144.297043,159.211227 144.097916,159.255966 143.898773,159.300705 
	C139.229385,159.272842 134.559998,159.244965 129.483093,159.132507 
	C129.075562,159.047913 129.067657,158.813828 128.993011,158.572021 
	C127.345634,157.882416 125.772919,157.434616 124.137589,156.659607 
	C124.106880,155.890442 124.138786,155.448502 124.374435,154.914917 
	C124.443291,154.212814 124.308403,153.602386 124.116943,152.526840 
	C124.101967,142.713318 124.143547,133.364914 124.492279,123.910202 
	C125.619987,122.682152 126.440544,121.560410 127.261108,120.438675 
	C126.155411,119.967667 125.049706,119.496651 123.616501,118.998245 
	C122.855644,119.020370 122.422287,119.069885 121.741570,119.033066 
	C121.327690,118.893990 121.161171,118.841255 120.656158,118.629921 
	C117.879623,118.575249 115.441574,118.679169 112.537697,118.839516 
	C91.050522,118.861229 70.029175,118.826523 48.841652,118.642052 
	C48.446995,118.295296 48.191170,118.144798 47.554100,118.019936 
	C46.493965,117.961388 45.787731,117.923698 45.055138,117.540604 
	C44.493187,116.046951 43.957592,114.898712 43.415688,113.297905 
	C43.525650,96.906929 43.641922,80.968529 44.078362,65.019302 
	C45.354160,64.553337 46.944832,64.292564 47.154076,63.608944 
	C48.002319,60.837658 48.425926,57.936398 49.456535,55.057945 
	C52.620201,55.041859 55.333519,55.050907 58.302856,55.221764 
	C59.689144,55.277340 60.819412,55.171120 62.330017,55.057934 
	C63.470898,55.065926 64.231438,55.080887 64.993805,55.536690 
	C65.663292,64.027466 66.359062,72.075233 66.978683,80.128860 
	C67.131569,82.116058 66.565224,84.283272 67.177872,86.078163 
	C67.908073,88.217453 69.551582,90.045006 71.039558,92.392944 
	C72.726120,92.998940 74.171837,93.404999 75.619095,93.410591 
	C86.030724,93.450859 96.442657,93.409889 107.104034,93.547562 
	C107.929962,93.766747 108.506348,93.833061 109.370667,94.045837 
	C110.761841,94.820274 111.865097,95.448265 112.968353,96.076263 
	C112.968353,96.076263 112.976875,96.009720 113.045685,96.250511 
	C113.419037,96.601578 113.723572,96.711853 114.028114,96.822136 
	C114.028114,96.822136 114.261864,96.936432 114.439659,96.962944 
	C114.794930,97.012444 114.937279,97.088638 115.052032,97.685616 
	C114.861237,101.562538 116.961800,103.311493 119.868217,103.744255 
	C121.148537,103.934898 122.651001,102.633728 124.117981,101.913132 
	C124.291122,101.591751 124.267250,101.381859 124.079865,101.123337 
	C124.047997,101.059959 123.959122,100.949364 123.975800,100.578140 
	C124.062149,99.468697 124.131828,98.730492 124.264465,97.875931 
	C124.402618,97.491478 124.359444,97.241882 124.131844,96.545609 
	C124.104889,85.712624 124.144005,75.344833 124.317436,64.746902 
	C124.362076,63.684521 124.272400,62.852280 124.126732,61.681923 
	C124.108192,60.889935 124.145653,60.436066 124.384575,59.735344 
	C126.059280,57.718624 127.532524,55.948753 129.467865,54.110649 
	C134.949982,54.084236 139.970016,54.126064 145.013947,54.406914 
	C145.251617,55.031948 145.465408,55.417961 145.679199,55.803970 
	C146.122330,55.260136 146.565475,54.716301 147.364227,54.113022 
	C148.438904,54.081062 149.157959,54.108540 150.003876,54.436195 
	C150.577347,55.476688 151.023941,56.216999 151.431824,57.404156 
	C151.288239,60.240551 151.183350,62.630104 150.694763,65.091621 
	C149.547714,66.465126 148.126007,67.762947 148.118622,69.068764 
	C147.983597,92.950241 147.965652,116.833084 148.147644,140.713928 
	C148.158539,142.143326 150.055893,143.558350 151.175018,145.413849 
	C151.314972,147.921997 151.355347,149.996338 151.254700,152.017029 
	C151.113663,151.963364 150.813263,151.992401 150.670105,152.224792 
	C150.343445,152.969574 150.159973,153.481934 149.795883,154.297028 
	C149.410172,155.995468 149.205078,157.391174 148.721207,158.901642 
	C148.266830,159.114136 148.091202,159.211853 147.915588,159.309586 
M65.758125,95.880363 
	C66.047531,95.465515 66.362213,95.063744 66.592720,94.618408 
	C66.619949,94.565796 66.185745,94.274330 65.965446,94.093582 
	C65.792656,94.593895 65.619858,95.094215 65.758125,95.880363 
z"/>
<path fill="#616ED5" opacity="1.000000" stroke="none" 
	d="
M151.395721,152.070694 
	C151.355347,149.996338 151.314972,147.921997 151.286743,144.958588 
	C151.332687,130.973053 151.421707,117.876396 151.384872,104.780090 
	C151.347580,91.526428 151.185730,78.273117 151.078461,65.019653 
	C151.183350,62.630104 151.288239,60.240551 151.583344,57.151497 
	C151.782806,55.675365 151.792068,54.898731 152.093536,54.095856 
	C152.580612,54.052803 152.775467,54.035995 152.970337,54.019184 
	C152.984238,87.135864 153.006851,120.252556 152.986053,153.369217 
	C152.985031,155.005600 152.605560,156.641769 152.210663,158.234680 
	C151.811264,156.151123 151.603500,154.110901 151.395721,152.070694 
z"/>
<path fill="#586CEC" opacity="1.000000" stroke="none" 
	d="
M72.037682,87.000473 
	C73.522789,85.260559 75.007904,83.520645 76.507370,81.763916 
	C76.719551,81.932304 77.175240,82.123558 77.177696,82.320457 
	C77.273148,89.994560 77.267723,89.996475 85.145683,90.003326 
	C89.940636,90.007500 94.739693,89.891953 99.528343,90.065895 
	C101.231277,90.127747 102.908951,90.885406 104.330750,91.661758 
	C95.351761,91.995438 86.633369,92.176216 77.933624,91.853790 
	C75.904106,91.778572 73.937927,89.994438 71.960190,88.664001 
	C71.997749,87.887764 72.017715,87.444122 72.037682,87.000473 
M73.527298,89.497826 
	C73.527298,89.497826 73.487961,89.511742 73.527298,89.497826 
z"/>
<path fill="#6273C1" opacity="1.000000" stroke="none" 
	d="
M120.994652,118.788521 
	C121.161171,118.841255 121.327690,118.893990 121.748199,119.248299 
	C122.002190,119.549873 122.015945,119.980339 121.757935,119.992203 
	C121.327972,120.013222 121.156029,120.022362 120.984093,120.031502 
	C97.847130,120.019653 74.710129,120.023567 51.573257,119.971504 
	C49.266907,119.966316 46.961315,119.620346 44.440121,118.993568 
	C44.510410,118.331741 44.795952,118.108879 45.081493,117.886017 
	C45.787731,117.923698 46.493965,117.961388 47.659111,118.250046 
	C48.414623,118.597946 48.711224,118.694878 49.007828,118.791809 
	C70.029175,118.826523 91.050522,118.861229 112.976456,118.916862 
	C116.252243,118.888039 118.623451,118.838280 120.994652,118.788521 
z"/>
<path fill="#5C6DC7" opacity="1.000000" stroke="none" 
	d="
M43.758194,65.030121 
	C43.641922,80.968529 43.525650,96.906929 43.279781,113.713104 
	C43.109638,116.029976 43.069092,117.479073 43.028542,118.928177 
	C42.580441,118.371468 41.739590,117.813759 41.741016,117.258202 
	C41.792103,97.382988 41.914249,77.507927 42.063984,57.633125 
	C42.071278,56.664928 42.416706,55.699280 42.902878,54.448097 
	C43.201077,54.163750 43.377754,54.287933 43.426811,54.543846 
	C43.480637,55.146843 43.485409,55.493923 43.399426,56.166962 
	C43.348236,56.715000 43.387802,56.937077 43.412991,57.596260 
	C43.518478,60.365620 43.638336,62.697872 43.758194,65.030121 
z"/>
<path fill="#5C6CDB" opacity="1.000000" stroke="none" 
	d="
M152.683167,53.767159 
	C152.775467,54.035995 152.580612,54.052803 151.772644,54.089104 
	C150.732025,54.117741 150.304504,54.126877 149.876999,54.136017 
	C149.157959,54.108540 148.438904,54.081062 147.029999,54.048141 
	C145.890121,54.084431 145.440079,54.126160 144.990051,54.167892 
	C139.970016,54.126064 134.949982,54.084236 129.084595,54.040825 
	C127.199684,54.059624 126.160103,54.080006 124.764961,54.076576 
	C123.935707,54.013451 123.462029,53.974133 122.988342,53.934811 
	C123.487465,53.505878 123.995331,52.693607 124.484413,52.704758 
	C133.789597,52.916908 143.092575,53.226089 152.683167,53.767159 
z"/>
<path fill="#7280BF" opacity="1.000000" stroke="none" 
	d="
M122.788246,54.260551 
	C123.462029,53.974133 123.935707,54.013451 124.574387,54.407505 
	C124.553955,56.502224 124.368538,58.242210 124.183113,59.982193 
	C124.145653,60.436066 124.108192,60.889935 124.059952,62.048721 
	C124.093811,63.494778 124.138466,64.235916 124.183121,64.977051 
	C124.144005,75.344833 124.104889,85.712624 124.089622,96.791168 
	C124.113472,97.501938 124.201508,97.992279 124.201508,97.992279 
	C124.131828,98.730492 124.062149,99.468697 123.745041,100.631439 
	C123.497612,101.055977 123.036034,101.161934 123.036041,101.161934 
	C122.992096,89.433899 122.948151,77.705864 122.930031,65.169922 
	C122.957603,63.905064 122.959351,63.448116 122.961098,62.991165 
	C122.836784,60.189541 122.712463,57.387913 122.788246,54.260551 
z"/>
<path fill="#616FCF" opacity="1.000000" stroke="none" 
	d="
M71.942596,88.996582 
	C73.937927,89.994438 75.904106,91.778572 77.933624,91.853790 
	C86.633369,92.176216 95.351761,91.995438 104.532028,91.987549 
	C108.034843,92.107697 111.412498,91.447151 112.885529,95.720291 
	C111.865097,95.448265 110.761841,94.820274 109.151039,93.823273 
	C108.047165,93.434402 107.450829,93.414551 106.854500,93.394691 
	C96.442657,93.409889 86.030724,93.450859 75.619095,93.410591 
	C74.171837,93.404999 72.726120,92.998940 71.114487,92.022507 
	C71.015305,90.515320 71.081329,89.763893 71.346146,89.007675 
	C71.544937,89.002876 71.942596,88.996582 71.942596,88.996582 
z"/>
<path fill="#7280BF" opacity="1.000000" stroke="none" 
	d="
M122.015945,119.980339 
	C122.015945,119.980339 122.002190,119.549873 121.995560,119.334641 
	C122.422287,119.069885 122.855644,119.020370 123.642075,119.414200 
	C124.058479,121.243866 124.121811,122.630188 124.185135,124.016502 
	C124.143547,133.364914 124.101967,142.713318 124.050446,152.860596 
	C124.083908,154.108475 124.127296,154.557526 124.170685,155.006561 
	C124.138786,155.448502 124.106880,155.890442 124.056854,156.903915 
	C123.990128,157.639923 123.941513,157.804413 123.700699,158.016998 
	C123.508484,158.065094 123.128471,158.177460 123.128471,158.177460 
	C123.128471,158.177460 122.999893,158.097244 122.968536,157.670975 
	C122.924782,156.494507 122.912392,155.744324 122.900009,154.994125 
	C122.885796,144.001801 122.871590,133.009476 122.739609,121.349205 
	C122.448631,120.422752 122.246674,120.189117 122.015945,119.980339 
z"/>
<path fill="#6C79D3" opacity="1.000000" stroke="none" 
	d="
M71.960190,88.664001 
	C71.942596,88.996582 71.544937,89.002876 71.285950,88.541588 
	C70.944870,77.043236 70.862785,66.006172 70.895691,54.977722 
	C71.010689,54.986332 71.240082,54.962502 71.240082,54.962502 
	C71.495598,63.182308 71.763832,71.401749 71.997963,79.622169 
	C72.059067,81.767639 72.013962,83.916122 72.027664,86.531845 
	C72.017715,87.444122 71.997749,87.887764 71.960190,88.664001 
z"/>
<path fill="#F4FAFC" opacity="1.000000" stroke="none" 
	d="
M122.811050,101.396347 
	C123.036034,101.161934 123.497612,101.055977 123.728363,101.002670 
	C123.959122,100.949364 124.047997,101.059959 124.061386,101.327896 
	C124.074783,101.595825 124.052605,102.009865 124.052605,102.009865 
	C122.651001,102.633728 121.148537,103.934898 119.868217,103.744255 
	C116.961800,103.311493 114.861237,101.562538 114.983681,97.649582 
	C114.907791,97.145981 114.859787,96.866379 114.859787,96.866379 
	C117.435211,98.454514 120.010635,100.042641 122.811050,101.396347 
z"/>
<path fill="#6273C1" opacity="1.000000" stroke="none" 
	d="
M43.116638,54.096447 
	C51.784492,53.835415 60.536785,53.641682 69.213028,53.704399 
	C66.740341,54.047203 64.343697,54.133560 61.559540,54.171692 
	C60.132118,54.155357 59.092205,54.187252 57.596661,54.140564 
	C53.760849,54.129196 50.380661,54.196407 46.640175,54.208893 
	C45.312500,54.198757 44.345127,54.243343 43.377754,54.287933 
	C43.377754,54.287933 43.201077,54.163750 43.116638,54.096447 
z"/>
<path fill="#B1BDEC" opacity="1.000000" stroke="none" 
	d="
M43.253410,118.956940 
	C43.069092,117.479073 43.109638,116.029976 43.286091,114.165672 
	C43.957592,114.898712 44.493187,116.046951 45.055138,117.540604 
	C44.795952,118.108879 44.510410,118.331741 44.077751,118.785439 
	C43.930637,119.016273 43.478275,118.985710 43.253410,118.956940 
z"/>
<path fill="#DDE9FE" opacity="1.000000" stroke="none" 
	d="
M61.947048,54.219917 
	C64.343697,54.133560 66.740341,54.047203 69.582489,53.890137 
	C70.335274,54.037922 70.642563,54.256420 71.094963,54.718712 
	C71.240082,54.962502 71.010689,54.986332 70.483337,54.993011 
	C68.301315,55.031742 66.646645,55.063793 64.991982,55.095844 
	C64.231438,55.080887 63.470898,55.065926 62.328110,54.846413 
	C61.945866,54.641861 61.947048,54.219913 61.947048,54.219917 
z"/>
<path fill="#A3B1EE" opacity="1.000000" stroke="none" 
	d="
M151.254700,152.017029 
	C151.603500,154.110901 151.811264,156.151123 152.003723,158.592102 
	C151.813705,159.002701 151.638992,159.012497 151.157867,158.756851 
	C150.851456,158.491394 150.722855,158.043396 150.804504,157.646851 
	C150.847137,156.175781 150.808105,155.101257 150.819153,153.689301 
	C150.850555,152.898697 150.831909,152.445557 150.813263,151.992401 
	C150.813263,151.992401 151.113663,151.963364 151.254700,152.017029 
z"/>
<path fill="#8B99DC" opacity="1.000000" stroke="none" 
	d="
M123.248878,158.480042 
	C123.128471,158.177460 123.508484,158.065094 123.959549,158.310486 
	C125.962959,158.641846 127.515305,158.727829 129.067657,158.813812 
	C129.067657,158.813828 129.075562,159.047913 129.014832,159.147888 
	C127.092506,159.092789 125.230896,158.937714 123.248878,158.480042 
z"/>
<path fill="#616FCF" opacity="1.000000" stroke="none" 
	d="
M114.820984,96.881027 
	C114.859787,96.866379 114.907791,97.145981 114.976143,97.182014 
	C114.937279,97.088638 114.794930,97.012444 114.563667,96.923607 
	C114.509880,96.857758 114.782173,96.895676 114.820984,96.881027 
z"/>
<path fill="#F4FDFE" opacity="1.000000" stroke="none" 
	d="
M145.332336,159.054260 
	C145.611862,158.824219 146.221664,158.678986 146.917542,158.748581 
	C146.556595,159.021957 146.109604,159.080505 145.332336,159.054260 
z"/>
<path fill="#5C6FD1" opacity="1.000000" stroke="none" 
	d="
M122.749855,63.080147 
	C122.959351,63.448116 122.957603,63.905064 122.927376,64.704216 
	C122.778801,64.420654 122.658707,63.794888 122.749855,63.080147 
z"/>
<path fill="#5C6FD1" opacity="1.000000" stroke="none" 
	d="
M122.755722,155.225830 
	C122.912392,155.744324 122.924782,156.494507 122.913589,157.618805 
	C122.797142,157.147781 122.704285,156.302658 122.755722,155.225830 
z"/>
<path fill="#8B99DC" opacity="1.000000" stroke="none" 
	d="
M148.100769,159.453949 
	C148.091202,159.211853 148.266830,159.114136 148.997910,158.931183 
	C149.735413,158.809799 149.917450,158.773666 150.091339,158.879395 
	C150.083191,159.021255 149.994904,159.291412 149.994904,159.291412 
	C149.425262,159.393707 148.855606,159.496002 148.100769,159.453949 
z"/>
<path fill="#5C6FD1" opacity="1.000000" stroke="none" 
	d="
M121.757935,119.992203 
	C122.246674,120.189117 122.448631,120.422752 122.729553,120.886429 
	C122.359161,120.851601 121.881042,120.611595 121.193512,120.201553 
	C121.156029,120.022362 121.327972,120.013222 121.757935,119.992203 
z"/>
<path fill="#616FCF" opacity="1.000000" stroke="none" 
	d="
M113.852234,96.673218 
	C113.723572,96.711853 113.419037,96.601578 113.012146,96.250893 
	C113.179985,96.159866 113.435501,96.331139 113.852234,96.673218 
z"/>
<path fill="#F4FDFE" opacity="1.000000" stroke="none" 
	d="
M150.722855,158.043396 
	C150.722855,158.043396 150.851456,158.491394 150.898010,158.719711 
	C150.787521,159.009354 150.630478,159.070663 150.234161,159.211700 
	C149.994904,159.291412 150.083191,159.021255 150.186890,158.755768 
	C150.423538,158.330551 150.567627,158.181580 150.722855,158.043396 
z"/>
<path fill="#8B99DC" opacity="1.000000" stroke="none" 
	d="
M144.032349,159.408600 
	C144.097916,159.255966 144.297043,159.211227 144.795197,159.232071 
	C144.784775,159.370605 144.475342,159.443558 144.032349,159.408600 
z"/>
<path fill="#FCFBF7" opacity="1.000000" stroke="none" 
	d="
M150.694763,65.091621 
	C151.185730,78.273117 151.347580,91.526428 151.384872,104.780090 
	C151.421707,117.876396 151.332687,130.973053 151.187164,144.524811 
	C150.055893,143.558350 148.158539,142.143326 148.147644,140.713928 
	C147.965652,116.833084 147.983597,92.950241 148.118622,69.068764 
	C148.126007,67.762947 149.547714,66.465126 150.694763,65.091621 
z"/>
<path fill="#FBFDFB" opacity="1.000000" stroke="none" 
	d="
M64.993805,55.536690 
	C66.646645,55.063793 68.301315,55.031742 70.368340,54.984398 
	C70.862785,66.006172 70.944870,77.043236 71.087158,88.546387 
	C71.081329,89.763893 71.015305,90.515320 70.874359,91.637177 
	C69.551582,90.045006 67.908073,88.217453 67.177872,86.078163 
	C66.565224,84.283272 67.131569,82.116058 66.978683,80.128860 
	C66.359062,72.075233 65.663292,64.027466 64.993805,55.536690 
z"/>
<path fill="#FBFDFB" opacity="1.000000" stroke="none" 
	d="
M43.426811,54.543846 
	C44.345127,54.243343 45.312500,54.198757 46.862907,54.368790 
	C47.966019,54.749973 48.486103,54.916531 49.006184,55.083088 
	C48.425926,57.936398 48.002319,60.837658 47.154076,63.608944 
	C46.944832,64.292564 45.354160,64.553337 44.078365,65.019302 
	C43.638336,62.697872 43.518478,60.365620 43.543571,57.458069 
	C43.720516,56.760048 43.803375,56.623253 43.774109,56.517490 
	C43.709404,56.283710 43.588291,56.065540 43.490181,55.841003 
	C43.485409,55.493923 43.480637,55.146843 43.426811,54.543846 
z"/>
<path fill="#F4FDFE" opacity="1.000000" stroke="none" 
	d="
M124.384575,59.735344 
	C124.368538,58.242210 124.553955,56.502224 124.929947,54.431313 
	C126.160103,54.080006 127.199684,54.059624 128.622513,54.109062 
	C127.532524,55.948753 126.059280,57.718624 124.384575,59.735344 
z"/>
<path fill="#F4FAFC" opacity="1.000000" stroke="none" 
	d="
M124.492279,123.910202 
	C124.121811,122.630188 124.058479,121.243866 123.969574,119.441597 
	C125.049706,119.496651 126.155411,119.967667 127.261108,120.438675 
	C126.440544,121.560410 125.619987,122.682152 124.492279,123.910202 
z"/>
<path fill="#DDE9FE" opacity="1.000000" stroke="none" 
	d="
M49.456535,55.057945 
	C48.486103,54.916531 47.966019,54.749973 47.223206,54.423515 
	C50.380661,54.196407 53.760849,54.129196 57.596870,54.350777 
	C58.052711,54.639572 58.046837,55.059959 58.046837,55.059959 
	C55.333519,55.050907 52.620201,55.041859 49.456535,55.057945 
z"/>
<path fill="#F4FAFC" opacity="1.000000" stroke="none" 
	d="
M128.993011,158.572021 
	C127.515305,158.727829 125.962959,158.641846 124.151756,158.262375 
	C123.941513,157.804413 123.990128,157.639923 124.119469,157.231140 
	C125.772919,157.434616 127.345634,157.882416 128.993011,158.572021 
z"/>
<path fill="#FCFBF7" opacity="1.000000" stroke="none" 
	d="
M150.804504,157.646851 
	C150.567627,158.181580 150.423538,158.330551 150.195038,158.613892 
	C149.917450,158.773666 149.735413,158.809799 149.276672,158.816406 
	C149.205078,157.391174 149.410172,155.995468 149.994141,154.305847 
	C150.373001,154.011932 150.769089,154.026733 150.769089,154.026733 
	C150.808105,155.101257 150.847137,156.175781 150.804504,157.646851 
z"/>
<path fill="#E9F0FF" opacity="1.000000" stroke="none" 
	d="
M120.656158,118.629921 
	C118.623451,118.838280 116.252243,118.888039 113.442284,118.860443 
	C115.441574,118.679169 117.879623,118.575249 120.656158,118.629921 
z"/>
<path fill="#FBFDFB" opacity="1.000000" stroke="none" 
	d="
M58.302856,55.221764 
	C58.046837,55.059959 58.052711,54.639572 58.052498,54.429359 
	C59.092205,54.187252 60.132118,54.155357 61.559540,54.171688 
	C61.947048,54.219913 61.945866,54.641861 61.947773,54.853378 
	C60.819412,55.171120 59.689144,55.277340 58.302856,55.221764 
z"/>
<path fill="#FBFDFB" opacity="1.000000" stroke="none" 
	d="
M65.602600,95.737442 
	C65.619858,95.094215 65.792656,94.593895 65.965446,94.093582 
	C66.185745,94.274330 66.619949,94.565796 66.592720,94.618408 
	C66.362213,95.063744 66.047531,95.465515 65.602600,95.737442 
z"/>
<path fill="#A3B1EE" opacity="1.000000" stroke="none" 
	d="
M150.003876,54.436195 
	C150.304504,54.126877 150.732025,54.117741 151.480438,54.115349 
	C151.792068,54.898731 151.782806,55.675365 151.622040,56.704651 
	C151.023941,56.216999 150.577347,55.476688 150.003876,54.436195 
z"/>
<path fill="#F4FDFE" opacity="1.000000" stroke="none" 
	d="
M145.013947,54.406914 
	C145.440079,54.126160 145.890121,54.084431 146.674377,54.107582 
	C146.565475,54.716301 146.122330,55.260136 145.679199,55.803970 
	C145.465408,55.417961 145.251617,55.031948 145.013947,54.406914 
z"/>
<path fill="#F4FAFC" opacity="1.000000" stroke="none" 
	d="
M124.374435,154.914917 
	C124.127296,154.557526 124.083908,154.108475 124.107018,153.325684 
	C124.308403,153.602386 124.443291,154.212814 124.374435,154.914917 
z"/>
<path fill="#F4FDFE" opacity="1.000000" stroke="none" 
	d="
M124.317429,64.746902 
	C124.138466,64.235916 124.093811,63.494778 124.115936,62.386841 
	C124.272400,62.852280 124.362076,63.684521 124.317429,64.746902 
z"/>
<path fill="#F4FDFE" opacity="1.000000" stroke="none" 
	d="
M150.819153,153.689301 
	C150.769089,154.026733 150.373001,154.011932 150.174744,154.003113 
	C150.159973,153.481934 150.343445,152.969574 150.670105,152.224792 
	C150.831909,152.445557 150.850555,152.898697 150.819153,153.689301 
z"/>
<path fill="#B1BDEC" opacity="1.000000" stroke="none" 
	d="
M107.104034,93.547562 
	C107.450829,93.414551 108.047165,93.434402 108.863113,93.676819 
	C108.506348,93.833061 107.929962,93.766747 107.104034,93.547562 
z"/>
<path fill="#E9F0FF" opacity="1.000000" stroke="none" 
	d="
M48.841652,118.642059 
	C48.711224,118.694878 48.414623,118.597946 48.013008,118.270905 
	C48.191170,118.144798 48.446995,118.295296 48.841652,118.642059 
z"/>
<path fill="#F4FDFE" opacity="1.000000" stroke="none" 
	d="
M124.117981,101.913132 
	C124.052605,102.009865 124.074783,101.595825 124.093262,101.391266 
	C124.267250,101.381859 124.291122,101.591751 124.117981,101.913132 
z"/>
<path fill="#F4FDFE" opacity="1.000000" stroke="none" 
	d="
M124.264465,97.875931 
	C124.201508,97.992279 124.113472,97.501938 124.155693,97.256371 
	C124.359444,97.241882 124.402618,97.491478 124.264465,97.875931 
z"/>
<path fill="#556EE5" opacity="1.000000" stroke="none" 
	d="
M73.507629,89.504784 
	C73.487961,89.511742 73.527298,89.497826 73.507629,89.504784 
z"/>
<path fill="#B1BDEC" opacity="1.000000" stroke="none" 
	d="
M43.399429,56.166962 
	C43.588291,56.065540 43.709404,56.283710 43.774109,56.517490 
	C43.803375,56.623253 43.720516,56.760048 43.557945,57.020958 
	C43.387802,56.937077 43.348236,56.715000 43.399429,56.166962 
z"/>
</svg>